<?xml version="1.0" encoding="utf-8"?>
<!-- Generator: Adobe Illustrator 17.0.0, SVG Export Plug-In . SVG Version: 6.00 Build 0)  -->
<!DOCTYPE svg PUBLIC "-//W3C//DTD SVG 1.1//EN" "http://www.w3.org/Graphics/SVG/1.1/DTD/svg11.dtd">
<svg version="1.1" id="Layer_1" xmlns="http://www.w3.org/2000/svg" xmlns:xlink="http://www.w3.org/1999/xlink" x="0px" y="0px"
	 width="50px" height="50px" viewBox="75 69 50 50" enable-background="new 75 69 50 50" xml:space="preserve">
<g>
	<path d="M124.988,119v-0.002H125V100.66c0-8.971-1.931-15.881-12.419-15.881c-5.042,0-8.425,2.767-9.806,5.389h-0.146v-4.552
		h-9.944v33.381h10.354v-16.529c0-4.352,0.825-8.561,6.215-8.561c5.311,0,5.39,4.967,5.39,8.84V119H124.988z"/>
	<path d="M75.825,85.619h10.367V119H75.825V85.619z"/>
	<path d="M81.004,69C77.689,69,75,71.689,75,75.004s2.689,6.061,6.004,6.061s6.004-2.746,6.004-6.061
		C87.006,71.689,84.317,69,81.004,69z"/>
</g>
</svg>
